<?xml version="1.0" encoding="utf-8"?>
<!-- Generator: Adobe Illustrator 23.0.3, SVG Export Plug-In . SVG Version: 6.00 Build 0)  -->
<svg version="1.1" id="Capa_1" xmlns="http://www.w3.org/2000/svg" xmlns:xlink="http://www.w3.org/1999/xlink" x="0px" y="0px"
	 viewBox="0 0 1200 1200" enable-background="new 0 0 1200 1200" xml:space="preserve">
<g>
	<path fill="#65993D" d="M1150,853.074l-47.963,69.28l-31.511-1.857v2.156H50.714l0.138-568.482L50,344.01l48.012-69.348
		l6.954-0.013l999.961-1.422c24.426,0,44.278,19.821,44.312,44.185L1150,853.074z"/>
	<g>
		<path fill="#AEE089" d="M890.051,347.951C707.891,539.519,525.73,731.086,343.569,922.653h-65.335
			c182.16-191.567,364.322-383.134,546.482-574.701H890.051z M929.404,347.951C747.007,539.518,564.609,731.085,382.212,922.653
			h33.15c182.398-191.568,364.796-383.134,547.194-574.701H929.404z"/>
	</g>
	<path fill="#28521A" d="M1027.456,392.414H129.801c-12.591,0-22.835,10.245-22.835,22.835v446.327
		c0,12.59,10.243,22.835,22.835,22.835h897.655c12.591,0,22.835-10.245,22.835-22.835V415.248
		C1050.29,402.659,1040.047,392.414,1027.456,392.414z M975.552,867.784H182.769l0.2-4.682c0.042-0.964,0.063-1.939,0.063-2.916
		c0-34.048-26.172-62.53-59.441-66.105V475.3c33.268-3.577,59.441-32.059,59.441-66.108c0-0.051-0.003-0.102-0.003-0.153h777.8
		c0,0.051-0.003,0.102-0.003,0.153c0,36.028,29.295,65.864,65.304,66.51c0.993,0.018,1.986,0.035,2.979,0.053
		c0.862,0.015,3.795-0.403,4.447,0.106c0.673,0.525,0.108,5.623,0.108,6.545c0,3.371,0,6.741,0,10.112c0,100.983,0,201.967,0,302.95
		c0,1.701,0,3.401,0,5.102c0,0.233,0,0.466,0,0.699C1001.059,805.899,975.714,834.122,975.552,867.784z M1087.707,371.479v550.03
		l-16.626-0.98v-549.05c0-7.602-6.186-13.788-13.789-13.788H50.852l0.001-3.52l-0.674-8.032v-2.387l1.86-2.687h1005.252
		C1074.062,341.065,1087.707,354.71,1087.707,371.479z M1122.845,892.298l-16.589,23.962
		c-0.287-177.668-0.292-404.029-0.002-577.153c0.011-6.326-2.445-12.265-6.913-16.727c-4.449-4.442-10.357-6.884-16.645-6.884
		c-0.026,0-0.052,0-0.08,0c-311.707,0.998-704.706,0.956-1012.801-0.105l11.484-16.588c306.312,1.023,693.417,1.055,1001.263,0.067
		c0.044,0,0.091,0,0.136,0c10.722,0,20.8,4.166,28.389,11.745c7.623,7.612,11.812,17.74,11.792,28.517
		C1122.602,504.561,1122.594,718.591,1122.845,892.298z"/>
	<path fill="#C4C2B9" d="M754.838,278.989v642.022c0,12.744-10.948,23.113-24.406,23.113H427.092
		c-13.458,0-24.408-10.37-24.408-23.113V278.989c0-12.743,10.95-23.113,24.408-23.113h303.339
		C743.89,255.876,754.838,266.246,754.838,278.989z"/>
</g>
</svg>
